<?xml version="1.0" encoding="utf-8"?>
<svg version="1.1" xmlns:xlink="http://www.w3.org/1999/xlink" width="16px" height="17px" xmlns="http://www.w3.org/2000/svg">
  <g transform="matrix(1 0 0 1 -1432 -552 )">
    <path d="M 9.47412008281574 8.10821643286573  C 9.58454106280193 8.22177688710755  9.63975155279503 8.35237140948564  9.63975155279503 8.5  C 9.63975155279503 8.64762859051436  9.58454106280193 8.77822311289245  9.47412008281574 8.89178356713427  L 1.75569358178054 16.8296593186373  C 1.64527260179434 16.9432197728791  1.51828847481021 17  1.37474120082816 17  C 1.2311939268461 17  1.10420979986197 16.9432197728791  0.993788819875776 16.8296593186373  L 0.165631469979296 15.9779559118236  C 0.0552104899930987 15.8643954575818  0 15.7338009352037  0 15.5861723446894  C 0 15.438543754175  0.0552104899930987 15.3079492317969  0.165631469979296 15.1943887775551  L 6.67494824016563 8.5  L 0.165631469979296 1.80561122244489  C 0.0552104899930987 1.69205076820307  0 1.56145624582498  0 1.41382765531062  C 0 1.26619906479626  0.0552104899930987 1.13560454241817  0.165631469979296 1.02204408817635  L 0.993788819875776 0.170340681362726  C 1.10420979986197 0.0567802271209079  1.2311939268461 0  1.37474120082816 0  C 1.51828847481021 0  1.64527260179434 0.0567802271209079  1.75569358178054 0.170340681362726  L 9.47412008281574 8.10821643286573  Z M 15.8343685300207 8.10821643286573  C 15.9447895100069 8.22177688710755  16 8.35237140948564  16 8.5  C 16 8.64762859051436  15.9447895100069 8.77822311289245  15.8343685300207 8.89178356713427  L 8.11594202898551 16.8296593186373  C 8.00552104899931 16.9432197728791  7.87853692201518 17  7.73498964803313 17  C 7.59144237405107 17  7.46445824706694 16.9432197728791  7.35403726708075 16.8296593186373  L 6.52587991718427 15.9779559118236  C 6.41545893719807 15.8643954575818  6.36024844720497 15.7338009352037  6.36024844720497 15.5861723446894  C 6.36024844720497 15.438543754175  6.41545893719807 15.3079492317969  6.52587991718427 15.1943887775551  L 13.0351966873706 8.5  L 6.52587991718427 1.80561122244489  C 6.41545893719807 1.69205076820307  6.36024844720497 1.56145624582498  6.36024844720497 1.41382765531062  C 6.36024844720497 1.26619906479626  6.41545893719807 1.13560454241817  6.52587991718427 1.02204408817635  L 7.35403726708075 0.170340681362726  C 7.46445824706694 0.0567802271209079  7.59144237405107 0  7.73498964803313 0  C 7.87853692201518 0  8.00552104899931 0.0567802271209079  8.11594202898551 0.170340681362726  L 15.8343685300207 8.10821643286573  Z " fill-rule="nonzero" fill="#000000" stroke="none" transform="matrix(1 0 0 1 1432 552 )" />
  </g>
</svg>