<?xml version="1.0" encoding="utf-8"?>
<svg version="1.1" xmlns:xlink="http://www.w3.org/1999/xlink" width="48px" height="42px" xmlns="http://www.w3.org/2000/svg">
  <g transform="matrix(1 0 0 1 -19 -8 )">
    <path d="M 19 8  L 67 8  L 67 50  L 19 50  L 19 8  " fill-rule="nonzero" fill="#cccccc" stroke="none" />
    <path d="M 22 11  L 64 11  L 64 47  L 22 47  L 22 11  " fill-rule="nonzero" fill="#ffffff" stroke="none" />
    <path d="M 47.11 20.6  C 45.346 20.6  43.96 19.214  43.96 17.45  C 43.96 15.686  45.346 14.3  47.11 14.3  C 48.874 14.3  50.26 15.686  50.26 17.45  C 50.26 19.214  48.874 20.6  47.11 20.6  " fill-rule="nonzero" fill="#cccccc" stroke="none" />
    <path d="M 23 46  L 23 27.3  L 33 18.8  L 47 28.15  L 55 23.9  L 63 28.15  L 63 46  L 23 46  " fill-rule="nonzero" fill="#169bd5" stroke="none" />
  </g>
</svg>