<?xml version="1.0" encoding="utf-8"?>
<svg version="1.1" xmlns:xlink="http://www.w3.org/1999/xlink" width="21px" height="22px" xmlns="http://www.w3.org/2000/svg">
  <g transform="matrix(1 0 0 1 -201 -18 )">
    <path d="M 1.61538461538462 16.8928571428571  L 1.61538461538462 20.4285714285714  L 5.25 20.4285714285714  L 5.25 16.8928571428571  L 1.61538461538462 16.8928571428571  Z M 6.05769230769231 16.8928571428571  L 6.05769230769231 20.4285714285714  L 10.0961538461538 20.4285714285714  L 10.0961538461538 16.8928571428571  L 6.05769230769231 16.8928571428571  Z M 1.61538461538462 12.1785714285714  L 1.61538461538462 16.1071428571429  L 5.25 16.1071428571429  L 5.25 12.1785714285714  L 1.61538461538462 12.1785714285714  Z M 6.05769230769231 12.1785714285714  L 6.05769230769231 16.1071428571429  L 10.0961538461538 16.1071428571429  L 10.0961538461538 12.1785714285714  L 6.05769230769231 12.1785714285714  Z M 1.61538461538462 7.85714285714286  L 1.61538461538462 11.3928571428571  L 5.25 11.3928571428571  L 5.25 7.85714285714286  L 1.61538461538462 7.85714285714286  Z M 10.9038461538462 16.8928571428571  L 10.9038461538462 20.4285714285714  L 14.9423076923077 20.4285714285714  L 14.9423076923077 16.8928571428571  L 10.9038461538462 16.8928571428571  Z M 6.05769230769231 7.85714285714286  L 6.05769230769231 11.3928571428571  L 10.0961538461538 11.3928571428571  L 10.0961538461538 7.85714285714286  L 6.05769230769231 7.85714285714286  Z M 15.75 16.8928571428571  L 15.75 20.4285714285714  L 19.3846153846154 20.4285714285714  L 19.3846153846154 16.8928571428571  L 15.75 16.8928571428571  Z M 10.9038461538462 12.1785714285714  L 10.9038461538462 16.1071428571429  L 14.9423076923077 16.1071428571429  L 14.9423076923077 12.1785714285714  L 10.9038461538462 12.1785714285714  Z M 6.34164663461538 5.77622767857143  C 6.42157451923077 5.69847470238095  6.46153846153846 5.60639880952381  6.46153846153846 5.5  L 6.46153846153846 1.96428571428571  C 6.46153846153846 1.8578869047619  6.42157451923077 1.76581101190476  6.34164663461538 1.68805803571429  C 6.26171875 1.61030505952381  6.16706730769231 1.57142857142857  6.05769230769231 1.57142857142857  L 5.25 1.57142857142857  C 5.140625 1.57142857142857  5.04597355769231 1.61030505952381  4.96604567307692 1.68805803571429  C 4.88611778846154 1.76581101190476  4.84615384615385 1.8578869047619  4.84615384615385 1.96428571428571  L 4.84615384615385 5.5  C 4.84615384615385 5.60639880952381  4.88611778846154 5.69847470238095  4.96604567307692 5.77622767857143  C 5.04597355769231 5.85398065476191  5.140625 5.89285714285714  5.25 5.89285714285714  L 6.05769230769231 5.89285714285714  C 6.16706730769231 5.89285714285714  6.26171875 5.85398065476191  6.34164663461538 5.77622767857143  Z M 15.75 12.1785714285714  L 15.75 16.1071428571429  L 19.3846153846154 16.1071428571429  L 19.3846153846154 12.1785714285714  L 15.75 12.1785714285714  Z M 10.9038461538462 7.85714285714286  L 10.9038461538462 11.3928571428571  L 14.9423076923077 11.3928571428571  L 14.9423076923077 7.85714285714286  L 10.9038461538462 7.85714285714286  Z M 15.75 7.85714285714286  L 15.75 11.3928571428571  L 19.3846153846154 11.3928571428571  L 19.3846153846154 7.85714285714286  L 15.75 7.85714285714286  Z M 16.0339543269231 5.77622767857143  C 16.1138822115385 5.69847470238095  16.1538461538462 5.60639880952381  16.1538461538462 5.5  L 16.1538461538462 1.96428571428571  C 16.1538461538462 1.8578869047619  16.1138822115385 1.76581101190476  16.0339543269231 1.68805803571429  C 15.9540264423077 1.61030505952381  15.859375 1.57142857142857  15.75 1.57142857142857  L 14.9423076923077 1.57142857142857  C 14.8329326923077 1.57142857142857  14.73828125 1.61030505952381  14.6583533653846 1.68805803571429  C 14.5784254807692 1.76581101190476  14.5384615384615 1.8578869047619  14.5384615384615 1.96428571428571  L 14.5384615384615 5.5  C 14.5384615384615 5.60639880952381  14.5784254807692 5.69847470238095  14.6583533653846 5.77622767857143  C 14.73828125 5.85398065476191  14.8329326923077 5.89285714285714  14.9423076923077 5.89285714285714  L 15.75 5.89285714285714  C 15.859375 5.89285714285714  15.9540264423077 5.85398065476191  16.0339543269231 5.77622767857143  Z M 20.5204326923077 3.609375  C 20.8401442307692 3.92038690476191  21 4.28869047619048  21 4.71428571428571  L 21 20.4285714285714  C 21 20.8541666666667  20.8401442307692 21.2224702380952  20.5204326923077 21.5334821428571  C 20.2007211538462 21.844494047619  19.8221153846154 22  19.3846153846154 22  L 1.61538461538462 22  C 1.17788461538462 22  0.799278846153846 21.844494047619  0.479567307692308 21.5334821428571  C 0.159855769230769 21.2224702380952  0 20.8541666666667  0 20.4285714285714  L 0 4.71428571428571  C 0 4.28869047619048  0.159855769230769 3.92038690476191  0.479567307692308 3.609375  C 0.799278846153846 3.29836309523809  1.17788461538462 3.14285714285714  1.61538461538462 3.14285714285714  L 3.23076923076923 3.14285714285714  L 3.23076923076923 1.96428571428571  C 3.23076923076923 1.42410714285714  3.42848557692308 0.961681547619046  3.82391826923077 0.577008928571429  C 4.21935096153846 0.19233630952381  4.69471153846154 0  5.25 0  L 6.05769230769231 0  C 6.61298076923077 0  7.08834134615385 0.19233630952381  7.48377403846154 0.577008928571429  C 7.87920673076923 0.961681547619046  8.07692307692308 1.42410714285714  8.07692307692308 1.96428571428571  L 8.07692307692308 3.14285714285714  L 12.9230769230769 3.14285714285714  L 12.9230769230769 1.96428571428571  C 12.9230769230769 1.42410714285714  13.1207932692308 0.961681547619046  13.5162259615385 0.577008928571429  C 13.9116586538462 0.19233630952381  14.3870192307692 0  14.9423076923077 0  L 15.75 0  C 16.3052884615385 0  16.7806490384615 0.19233630952381  17.1760817307692 0.577008928571429  C 17.5715144230769 0.961681547619046  17.7692307692308 1.42410714285714  17.7692307692308 1.96428571428571  L 17.7692307692308 3.14285714285714  L 19.3846153846154 3.14285714285714  C 19.8221153846154 3.14285714285714  20.2007211538462 3.29836309523809  20.5204326923077 3.609375  Z " fill-rule="nonzero" fill="#000000" stroke="none" transform="matrix(1 0 0 1 201 18 )" />
  </g>
</svg>