<?xml version="1.0" encoding="utf-8"?>
<svg version="1.1" xmlns:xlink="http://www.w3.org/1999/xlink" width="24px" height="23px" xmlns="http://www.w3.org/2000/svg">
  <g transform="matrix(1 0 0 1 -308 -18 )">
    <path d="M 6.4 8.21428571428571  C 6.4 9.40364583333333  6.7375 10.4988839285714  7.4125 11.5  C 6.0625 11.5427827380952  4.95833333333333 12.0904017857143  4.1 13.1428571428571  L 2.425 13.1428571428571  C 1.74166666666667 13.1428571428571  1.16666666666667 12.9695870535714  0.7 12.623046875  C 0.233333333333333 12.2765066964286  0 11.76953125  0 11.1021205357143  C 0 8.08165922619047  0.516666666666667 6.57142857142857  1.55 6.57142857142857  C 1.6 6.57142857142857  1.78125 6.66127232142857  2.09375 6.84095982142857  C 2.40625 7.02064732142857  2.8125 7.20247395833333  3.3125 7.38643973214286  C 3.8125 7.57040550595238  4.30833333333333 7.66238839285714  4.8 7.66238839285714  C 5.35833333333333 7.66238839285714  5.9125 7.56398809523809  6.4625 7.3671875  C 6.42083333333333 7.68377976190476  6.4 7.96614583333333  6.4 8.21428571428571  Z M 20.75625 18.3473772321429  C 20.7854166666667 18.7794828869048  20.8 19.2222842261905  20.8 19.67578125  C 20.8 20.7025669642857  20.4958333333333 21.5132998511905  19.8875 22.1079799107143  C 19.2791666666667 22.7026599702381  18.4708333333333 23  17.4625 23  L 6.5375 23  C 5.52916666666667 23  4.72083333333334 22.7026599702381  4.1125 22.1079799107143  C 3.50416666666667 21.5132998511905  3.2 20.7025669642857  3.2 19.67578125  C 3.2 19.2222842261905  3.21458333333333 18.7794828869048  3.24375 18.3473772321429  C 3.27291666666667 17.915271577381  3.33125 17.4489397321429  3.41875 16.9483816964286  C 3.50625 16.4478236607143  3.61666666666667 15.983630952381  3.75 15.5558035714286  C 3.88333333333333 15.1279761904762  4.0625 14.7108444940476  4.2875 14.3044084821429  C 4.5125 13.8979724702381  4.77083333333333 13.5514322916667  5.0625 13.2647879464286  C 5.35416666666667 12.9781436011905  5.71041666666667 12.749255952381  6.13125 12.578125  C 6.55208333333333 12.406994047619  7.01666666666667 12.3214285714286  7.525 12.3214285714286  C 7.60833333333333 12.3214285714286  7.7875 12.4134114583333  8.0625 12.5973772321429  C 8.3375 12.7813430059524  8.64166666666667 12.9867001488095  8.975 13.2134486607143  C 9.30833333333334 13.440197172619  9.75416666666667 13.6455543154762  10.3125 13.8295200892857  C 10.8708333333333 14.0134858630952  11.4333333333333 14.10546875  12 14.10546875  C 12.5666666666667 14.10546875  13.1291666666667 14.0134858630952  13.6875 13.8295200892857  C 14.2458333333333 13.6455543154762  14.6916666666667 13.440197172619  15.025 13.2134486607143  C 15.3583333333333 12.9867001488095  15.6625 12.7813430059524  15.9375 12.5973772321429  C 16.2125 12.4134114583333  16.3916666666667 12.3214285714286  16.475 12.3214285714286  C 16.9833333333333 12.3214285714286  17.4479166666667 12.406994047619  17.86875 12.578125  C 18.2895833333333 12.749255952381  18.6458333333333 12.9781436011905  18.9375 13.2647879464286  C 19.2291666666667 13.5514322916667  19.4875 13.8979724702381  19.7125 14.3044084821429  C 19.9375 14.7108444940476  20.1166666666667 15.1279761904762  20.25 15.5558035714286  C 20.3833333333333 15.983630952381  20.49375 16.4478236607143  20.58125 16.9483816964286  C 20.66875 17.4489397321429  20.7270833333333 17.915271577381  20.75625 18.3473772321429  Z M 7.0625 0.962611607142858  C 7.6875 1.60435267857143  8 2.37872023809524  8 3.28571428571429  C 8 4.19270833333333  7.6875 4.96707589285714  7.0625 5.60881696428571  C 6.4375 6.25055803571429  5.68333333333333 6.57142857142857  4.8 6.57142857142857  C 3.91666666666667 6.57142857142857  3.1625 6.25055803571429  2.5375 5.60881696428571  C 1.9125 4.96707589285714  1.6 4.19270833333333  1.6 3.28571428571429  C 1.6 2.37872023809524  1.9125 1.60435267857143  2.5375 0.962611607142858  C 3.1625 0.320870535714287  3.91666666666667 0  4.8 0  C 5.68333333333333 0  6.4375 0.320870535714287  7.0625 0.962611607142858  Z M 15.39375 4.72963169642857  C 16.33125 5.69224330357143  16.8 6.85379464285714  16.8 8.21428571428571  C 16.8 9.57477678571429  16.33125 10.736328125  15.39375 11.6989397321429  C 14.45625 12.6615513392857  13.325 13.1428571428571  12 13.1428571428571  C 10.675 13.1428571428571  9.54375 12.6615513392857  8.60625 11.6989397321429  C 7.66875 10.736328125  7.2 9.57477678571429  7.2 8.21428571428571  C 7.2 6.85379464285714  7.66875 5.69224330357143  8.60625 4.72963169642857  C 9.54375 3.76702008928571  10.675 3.28571428571429  12 3.28571428571429  C 13.325 3.28571428571429  14.45625 3.76702008928571  15.39375 4.72963169642857  Z M 22.45 6.57142857142857  C 23.4833333333333 6.57142857142857  24 8.08165922619047  24 11.1021205357143  C 24 11.76953125  23.7666666666667 12.2765066964286  23.3 12.623046875  C 22.8333333333333 12.9695870535714  22.2583333333333 13.1428571428571  21.575 13.1428571428571  L 19.9 13.1428571428571  C 19.0416666666667 12.0904017857143  17.9375 11.5427827380952  16.5875 11.5  C 17.2625 10.4988839285714  17.6 9.40364583333333  17.6 8.21428571428571  C 17.6 7.96614583333333  17.5791666666667 7.68377976190476  17.5375 7.3671875  C 18.0875 7.56398809523809  18.6416666666667 7.66238839285714  19.2 7.66238839285714  C 19.6916666666667 7.66238839285714  20.1875 7.57040550595238  20.6875 7.38643973214286  C 21.1875 7.20247395833333  21.59375 7.02064732142857  21.90625 6.84095982142857  C 22.21875 6.66127232142857  22.4 6.57142857142857  22.45 6.57142857142857  Z M 21.4625 0.962611607142858  C 22.0875 1.60435267857143  22.4 2.37872023809524  22.4 3.28571428571429  C 22.4 4.19270833333333  22.0875 4.96707589285714  21.4625 5.60881696428571  C 20.8375 6.25055803571429  20.0833333333333 6.57142857142857  19.2 6.57142857142857  C 18.3166666666667 6.57142857142857  17.5625 6.25055803571429  16.9375 5.60881696428571  C 16.3125 4.96707589285714  16 4.19270833333333  16 3.28571428571429  C 16 2.37872023809524  16.3125 1.60435267857143  16.9375 0.962611607142858  C 17.5625 0.320870535714287  18.3166666666667 0  19.2 0  C 20.0833333333333 0  20.8375 0.320870535714287  21.4625 0.962611607142858  Z " fill-rule="nonzero" fill="#000000" stroke="none" transform="matrix(1 0 0 1 308 18 )" />
  </g>
</svg>