<?xml version="1.0" encoding="utf-8"?>
<svg version="1.1" xmlns:xlink="http://www.w3.org/1999/xlink" width="32px" height="32px" xmlns="http://www.w3.org/2000/svg">
  <g transform="matrix(1 0 0 1 -1477 -880 )">
    <path d="M 24.4791666666667 12.3125  C 25.3541666666667 11.6875  26.0833333333333 10.9305555555556  26.6666666666667 10.0416666666667  C 25.8888888888889 10.3888888888889  25.0486111111111 10.625  24.1458333333333 10.75  C 25.0902777777778 10.1944444444444  25.7361111111111 9.38194444444444  26.0833333333333 8.3125  C 25.1805555555556 8.84027777777778  24.25 9.19444444444444  23.2916666666667 9.375  C 22.4444444444444 8.45833333333333  21.3819444444444 8  20.1041666666667 8  C 18.8958333333333 8  17.8645833333333 8.42708333333333  17.0104166666667 9.28125  C 16.15625 10.1354166666667  15.7291666666667 11.1666666666667  15.7291666666667 12.375  C 15.7291666666667 12.7777777777778  15.7638888888889 13.1111111111111  15.8333333333333 13.375  C 14.0416666666667 13.2777777777778  12.3611111111111 12.8263888888889  10.7916666666667 12.0208333333333  C 9.22222222222222 11.2152777777778  7.88888888888889 10.1388888888889  6.79166666666667 8.79166666666667  C 6.38888888888889 9.48611111111111  6.1875 10.2222222222222  6.1875 11  C 6.1875 12.5833333333333  6.81944444444445 13.7986111111111  8.08333333333333 14.6458333333333  C 7.43055555555556 14.6319444444444  6.73611111111111 14.4513888888889  6 14.1041666666667  L 6 14.1458333333333  C 6 15.1875  6.34722222222222 16.1145833333333  7.04166666666667 16.9270833333333  C 7.73611111111111 17.7395833333333  8.59027777777778 18.2430555555556  9.60416666666667 18.4375  C 9.20138888888889 18.5486111111111  8.84722222222222 18.6041666666667  8.54166666666667 18.6041666666667  C 8.36111111111111 18.6041666666667  8.09027777777778 18.5763888888889  7.72916666666667 18.5208333333333  C 8.02083333333333 19.3958333333333  8.53819444444444 20.1180555555556  9.28125 20.6875  C 10.0243055555556 21.2569444444444  10.8680555555556 21.5486111111111  11.8125 21.5625  C 10.2013888888889 22.8125  8.38888888888889 23.4375  6.375 23.4375  C 6.01388888888889 23.4375  5.66666666666667 23.4166666666667  5.33333333333333 23.375  C 7.38888888888889 24.6805555555556  9.625 25.3333333333333  12.0416666666667 25.3333333333333  C 13.5972222222222 25.3333333333333  15.0555555555556 25.0868055555556  16.4166666666667 24.59375  C 17.7777777777778 24.1006944444444  18.9444444444444 23.4409722222222  19.9166666666667 22.6145833333333  C 20.8888888888889 21.7881944444444  21.7256944444444 20.8368055555556  22.4270833333333 19.7604166666667  C 23.1284722222222 18.6840277777778  23.6493055555556 17.5590277777778  23.9895833333333 16.3854166666667  C 24.3298611111111 15.2118055555556  24.5 14.0416666666667  24.5 12.875  C 24.5 12.625  24.4930555555556 12.4375  24.4791666666667 12.3125  Z M 30.2395833333333 1.76041666666667  C 31.4131944444444 2.93402777777778  32 4.34722222222222  32 6  L 32 26  C 32 27.6527777777778  31.4131944444444 29.0659722222222  30.2395833333333 30.2395833333333  C 29.0659722222222 31.4131944444444  27.6527777777778 32  26 32  L 6 32  C 4.34722222222222 32  2.93402777777778 31.4131944444444  1.76041666666667 30.2395833333333  C 0.586805555555555 29.0659722222222  0 27.6527777777778  0 26  L 0 6  C 0 4.34722222222222  0.586805555555555 2.93402777777778  1.76041666666667 1.76041666666667  C 2.93402777777778 0.586805555555554  4.34722222222222 0  6 0  L 26 0  C 27.6527777777778 0  29.0659722222222 0.586805555555554  30.2395833333333 1.76041666666667  Z " fill-rule="nonzero" fill="#000000" stroke="none" transform="matrix(1 0 0 1 1477 880 )" />
  </g>
</svg>