<?xml version="1.0" encoding="utf-8"?>
<svg version="1.1" xmlns:xlink="http://www.w3.org/1999/xlink" width="32px" height="32px" xmlns="http://www.w3.org/2000/svg">
  <g transform="matrix(1 0 0 1 -1410 -880 )">
    <path d="M 16.9895833333333 21.8125  C 18.3993055555556 20.3541666666667  19.1041666666667 18.4791666666667  19.1041666666667 16.1875  C 19.1041666666667 15.8263888888889  19.0625 15.3819444444444  18.9791666666667 14.8541666666667  L 11.4375 14.8541666666667  L 11.4375 17.6041666666667  L 15.9583333333333 17.6041666666667  C 15.9166666666667 17.9375  15.8020833333333 18.2847222222222  15.6145833333333 18.6458333333333  C 15.4270833333333 19.0069444444444  15.1666666666667 19.375  14.8333333333333 19.75  C 14.5 20.125  14.0381944444444 20.4340277777778  13.4479166666667 20.6770833333333  C 12.8576388888889 20.9201388888889  12.1875 21.0416666666667  11.4375 21.0416666666667  C 10.0625 21.0416666666667  8.88888888888889 20.5486111111111  7.91666666666667 19.5625  C 6.94444444444445 18.5763888888889  6.45833333333333 17.3888888888889  6.45833333333333 16  C 6.45833333333333 14.6111111111111  6.94444444444445 13.4236111111111  7.91666666666667 12.4375  C 8.88888888888889 11.4513888888889  10.0625 10.9583333333333  11.4375 10.9583333333333  C 12.7152777777778 10.9583333333333  13.7777777777778 11.3680555555556  14.625 12.1875  L 16.7916666666667 10.0833333333333  C 15.2916666666667 8.69444444444444  13.5069444444444 8  11.4375 8  C 9.21527777777778 8  7.32638888888889 8.78125  5.77083333333333 10.34375  C 4.21527777777778 11.90625  3.4375 13.7916666666667  3.4375 16  C 3.4375 18.2083333333333  4.21527777777778 20.09375  5.77083333333333 21.65625  C 7.32638888888889 23.21875  9.21527777777778 24  11.4375 24  C 13.7291666666667 24  15.5798611111111 23.2708333333333  16.9895833333333 21.8125  Z M 26.2916666666667 19.4375  L 26.2916666666667 17.1458333333333  L 28.5625 17.1458333333333  L 28.5625 14.8541666666667  L 26.2916666666667 14.8541666666667  L 26.2916666666667 12.5625  L 24 12.5625  L 24 14.8541666666667  L 21.7083333333333 14.8541666666667  L 21.7083333333333 17.1458333333333  L 24 17.1458333333333  L 24 19.4375  L 26.2916666666667 19.4375  Z M 30.2395833333333 1.76041666666667  C 31.4131944444444 2.93402777777778  32 4.34722222222222  32 6  L 32 26  C 32 27.6527777777778  31.4131944444444 29.0659722222222  30.2395833333333 30.2395833333333  C 29.0659722222222 31.4131944444444  27.6527777777778 32  26 32  L 6 32  C 4.34722222222222 32  2.93402777777778 31.4131944444444  1.76041666666667 30.2395833333333  C 0.586805555555555 29.0659722222222  0 27.6527777777778  0 26  L 0 6  C 0 4.34722222222222  0.586805555555555 2.93402777777778  1.76041666666667 1.76041666666667  C 2.93402777777778 0.586805555555554  4.34722222222222 0  6 0  L 26 0  C 27.6527777777778 0  29.0659722222222 0.586805555555554  30.2395833333333 1.76041666666667  Z " fill-rule="nonzero" fill="#000000" stroke="none" transform="matrix(1 0 0 1 1410 880 )" />
  </g>
</svg>