<?xml version="1.0" encoding="utf-8"?>
<svg version="1.1" xmlns:xlink="http://www.w3.org/1999/xlink" width="32px" height="32px" xmlns="http://www.w3.org/2000/svg">
  <g transform="matrix(1 0 0 1 -1343 -880 )">
    <path d="M 6 0  L 26 0  C 27.6527777777778 0  29.0659722222222 0.586805555555554  30.2395833333333 1.76041666666667  C 31.4131944444444 2.93402777777778  32 4.34722222222222  32 6  L 32 26  C 32 27.6527777777778  31.4131944444444 29.0659722222222  30.2395833333333 30.2395833333333  C 29.0659722222222 31.4131944444444  27.6527777777778 32  26 32  L 22 32  L 22 19.6041666666667  L 26.2291666666667 19.6041666666667  L 26.8541666666667 14.7708333333333  L 22.0833333333333 14.7708333333333  L 22.0833333333333 11.6875  C 22.0833333333333 10.9097222222222  22.2465277777778 10.3263888888889  22.5729166666667 9.9375  C 22.8993055555556 9.54861111111111  23.5347222222222 9.35416666666667  24.4791666666667 9.35416666666667  L 27.0208333333333 9.33333333333333  L 27.0208333333333 5.02083333333333  C 26.1458333333333 4.89583333333333  24.9097222222222 4.83333333333333  23.3125 4.83333333333333  C 21.4236111111111 4.83333333333333  19.9131944444444 5.38888888888889  18.78125 6.5  C 17.6493055555556 7.61111111111111  17.0833333333333 9.18055555555555  17.0833333333333 11.2083333333333  L 17.0833333333333 14.7708333333333  L 12.9166666666667 14.7708333333333  L 12.9166666666667 19.6041666666667  L 17 19.6041666666667  L 17 32  L 6 32  C 4.34722222222222 32  2.93402777777778 31.4131944444444  1.76041666666667 30.2395833333333  C 0.586805555555555 29.0659722222222  0 27.6527777777778  0 26  L 0 6  C 0 4.34722222222222  0.586805555555555 2.93402777777778  1.76041666666667 1.76041666666667  C 2.93402777777778 0.586805555555554  4.34722222222222 0  6 0  Z " fill-rule="nonzero" fill="#000000" stroke="none" transform="matrix(1 0 0 1 1343 880 )" />
  </g>
</svg>