<?xml version="1.0" encoding="utf-8"?>
<svg version="1.1" xmlns:xlink="http://www.w3.org/1999/xlink" width="26px" height="23px" xmlns="http://www.w3.org/2000/svg">
  <g transform="matrix(1 0 0 1 -934 -18 )">
    <path d="M 9.28571428571429 1.91666666666667  L 9.28571428571429 3.83333333333333  L 16.7142857142857 3.83333333333333  L 16.7142857142857 1.91666666666667  L 9.28571428571429 1.91666666666667  Z M 3.25 3.83333333333333  L 4.17857142857143 3.83333333333333  L 4.17857142857143 23  L 3.25 23  C 2.36011904761905 23  1.59598214285714 22.6705729166667  0.957589285714286 22.01171875  C 0.319196428571429 21.3528645833333  0 20.5642361111111  0 19.6458333333333  L 0 7.1875  C 0 6.26909722222222  0.319196428571429 5.48046875  0.957589285714286 4.82161458333333  C 1.59598214285714 4.16276041666667  2.36011904761905 3.83333333333333  3.25 3.83333333333333  Z M 18.5714285714286 3.83333333333333  L 20 3.83333333333333  L 20 23  L 6 23  L 6 3.83333333333333  L 7.42857142857143 3.83333333333333  L 7.42857142857143 1.4375  C 7.42857142857143 1.03819444444444  7.5639880952381 0.698784722222219  7.83482142857143 0.419270833333332  C 8.10565476190476 0.139756944444443  8.43452380952381 0  8.82142857142857 0  L 17.1785714285714 0  C 17.5654761904762 0  17.8943452380952 0.139756944444443  18.1651785714286 0.419270833333332  C 18.4360119047619 0.698784722222219  18.5714285714286 1.03819444444444  18.5714285714286 1.4375  L 18.5714285714286 3.83333333333333  Z M 25.0424107142857 4.82161458333333  C 25.6808035714286 5.48046875  26 6.26909722222222  26 7.1875  L 26 19.6458333333333  C 26 20.5642361111111  25.6808035714286 21.3528645833333  25.0424107142857 22.01171875  C 24.4040178571429 22.6705729166667  23.639880952381 23  22.75 23  L 21.8214285714286 23  L 21.8214285714286 3.83333333333333  L 22.75 3.83333333333333  C 23.639880952381 3.83333333333333  24.4040178571429 4.16276041666667  25.0424107142857 4.82161458333333  Z " fill-rule="nonzero" fill="#000000" stroke="none" transform="matrix(1 0 0 1 934 18 )" />
  </g>
</svg>