<?xml version="1.0" encoding="utf-8"?>
<svg version="1.1" xmlns:xlink="http://www.w3.org/1999/xlink" width="26px" height="22px" xmlns="http://www.w3.org/2000/svg">
  <g transform="matrix(1 0 0 1 -821 -19 )">
    <path d="M 8.74162946428571 10.6784053156146  C 9.10435267857143 10.3129568106312  9.28571428571429 9.87198228128461  9.28571428571429 9.35548172757475  C 9.28571428571429 8.83898117386489  9.10435267857143 8.39800664451827  8.74162946428571 8.03255813953488  C 8.37890625 7.66710963455149  7.94122023809524 7.4843853820598  7.42857142857143 7.4843853820598  C 6.91592261904762 7.4843853820598  6.47823660714286 7.66710963455149  6.11551339285714 8.03255813953488  C 5.75279017857143 8.39800664451827  5.57142857142857 8.83898117386489  5.57142857142857 9.35548172757475  C 5.57142857142857 9.87198228128461  5.75279017857143 10.3129568106312  6.11551339285714 10.6784053156146  C 6.47823660714286 11.043853820598  6.91592261904762 11.2265780730897  7.42857142857143 11.2265780730897  C 7.94122023809524 11.2265780730897  8.37890625 11.043853820598  8.74162946428571 10.6784053156146  Z M 14.3130580357143 10.6784053156146  C 14.67578125 10.3129568106312  14.8571428571429 9.87198228128461  14.8571428571429 9.35548172757475  C 14.8571428571429 8.83898117386489  14.67578125 8.39800664451827  14.3130580357143 8.03255813953488  C 13.9503348214286 7.66710963455149  13.5126488095238 7.4843853820598  13 7.4843853820598  C 12.4873511904762 7.4843853820598  12.0496651785714 7.66710963455149  11.6869419642857 8.03255813953488  C 11.32421875 8.39800664451827  11.1428571428571 8.83898117386489  11.1428571428571 9.35548172757475  C 11.1428571428571 9.87198228128461  11.32421875 10.3129568106312  11.6869419642857 10.6784053156146  C 12.0496651785714 11.043853820598  12.4873511904762 11.2265780730897  13 11.2265780730897  C 13.5126488095238 11.2265780730897  13.9503348214286 11.043853820598  14.3130580357143 10.6784053156146  Z M 19.8844866071429 10.6784053156146  C 20.2472098214286 10.3129568106312  20.4285714285714 9.87198228128461  20.4285714285714 9.35548172757475  C 20.4285714285714 8.83898117386489  20.2472098214286 8.39800664451827  19.8844866071429 8.03255813953488  C 19.5217633928571 7.66710963455149  19.0840773809524 7.4843853820598  18.5714285714286 7.4843853820598  C 18.0587797619048 7.4843853820598  17.62109375 7.66710963455149  17.2583705357143 8.03255813953488  C 16.8956473214286 8.39800664451827  16.7142857142857 8.83898117386489  16.7142857142857 9.35548172757475  C 16.7142857142857 9.87198228128461  16.8956473214286 10.3129568106312  17.2583705357143 10.6784053156146  C 17.62109375 11.043853820598  18.0587797619048 11.2265780730897  18.5714285714286 11.2265780730897  C 19.0840773809524 11.2265780730897  19.5217633928571 11.043853820598  19.8844866071429 10.6784053156146  Z M 24.2589285714286 4.65581395348837  C 25.4196428571429 6.09324473975637  26 7.65980066445183  26 9.35548172757475  C 26 11.0511627906977  25.4196428571429 12.6177187153931  24.2589285714286 14.0551495016611  C 23.0982142857143 15.4925802879291  21.5215773809524 16.6279069767442  19.5290178571429 17.4611295681063  C 17.5364583333333 18.2943521594684  15.360119047619 18.7109634551495  13 18.7109634551495  C 11.9360119047619 18.7109634551495  10.9155505952381 18.6232558139535  9.93861607142857 18.4478405315615  C 8.26525297619048 20.1337763012182  6.16145833333333 21.2496124031008  3.62723214285714 21.7953488372093  C 3.12425595238095 21.8928017718715  2.70833333333333 21.956146179402  2.37946428571429 21.9853820598007  C 2.26339285714286 21.9951273532669  2.15699404761905 21.9658914728682  2.06026785714286 21.8976744186047  C 1.96354166666667 21.8294573643411  1.90066964285714 21.7417497231451  1.87165178571429 21.6345514950166  C 1.83296130952381 21.4883720930233  1.9296875 21.3080841638981  2.16183035714286 21.0936877076412  C 2.21019345238095 21.0449612403101  2.32384672619048 20.9401993355482  2.50279017857143 20.7794019933555  C 2.68173363095238 20.6186046511628  2.80505952380952 20.5040974529347  2.87276785714286 20.4358803986711  C 2.94047619047619 20.3676633444075  3.05412946428571 20.2434108527132  3.21372767857143 20.063122923588  C 3.37332589285714 19.8828349944629  3.48939732142857 19.7293466223699  3.56194196428571 19.602657807309  C 3.63448660714286 19.4759689922481  3.73363095238095 19.2956810631229  3.859375 19.0617940199336  C 3.98511904761905 18.8279069767442  4.08184523809524 18.5940199335548  4.14955357142857 18.3601328903654  C 4.21726190476191 18.1262458471761  4.28738839285714 17.8460686600221  4.35993303571429 17.5196013289037  C 4.43247767857143 17.1931339977852  4.49293154761905 16.8398671096346  4.54129464285714 16.4598006644518  C 3.12909226190476 15.5827242524917  2.01915922619048 14.527796234773  1.21149553571429 13.2950166112957  C 0.403831845238095 12.0622369878184  0 10.7490586932447  0 9.35548172757475  C 0 7.65980066445183  0.580357142857143 6.09324473975637  1.74107142857143 4.65581395348837  C 2.90178571428571 3.21838316722037  4.47842261904762 2.08305647840532  6.47098214285714 1.24983388704319  C 8.46354166666667 0.416611295681064  10.639880952381 0  13 0  C 15.360119047619 0  17.5364583333333 0.416611295681064  19.5290178571429 1.24983388704319  C 21.5215773809524 2.08305647840532  23.0982142857143 3.21838316722037  24.2589285714286 4.65581395348837  Z " fill-rule="nonzero" fill="#000000" stroke="none" transform="matrix(1 0 0 1 821 19 )" />
  </g>
</svg>