<?xml version="1.0" encoding="utf-8"?>
<svg version="1.1" xmlns:xlink="http://www.w3.org/1999/xlink" width="26px" height="19px" xmlns="http://www.w3.org/2000/svg">
  <g transform="matrix(1 0 0 1 -711 -21 )">
    <path d="M 4.875 9.5  L 8.125 9.5  L 8.125 15.8333333333333  L 4.875 15.8333333333333  L 4.875 9.5  Z M 10 3.16666666666667  L 13 3.16666666666667  L 13 15.8333333333333  L 10 15.8333333333333  L 10 3.16666666666667  Z M 2 17.4166666666667  L 26 17.4166666666667  L 26 19  L 0 19  L 0 0  L 2 0  L 2 17.4166666666667  Z M 14.625 6.33333333333333  L 17.875 6.33333333333333  L 17.875 15.8333333333333  L 14.625 15.8333333333333  L 14.625 6.33333333333333  Z M 19 1.58333333333333  L 22.75 1.58333333333333  L 22.75 15.8333333333333  L 19 15.8333333333333  L 19 1.58333333333333  Z " fill-rule="nonzero" fill="#000000" stroke="none" transform="matrix(1 0 0 1 711 21 )" />
  </g>
</svg>