<?xml version="1.0" encoding="utf-8"?>
<svg version="1.1" xmlns:xlink="http://www.w3.org/1999/xlink" width="23px" height="21px" xmlns="http://www.w3.org/2000/svg">
  <g transform="matrix(1 0 0 1 -606 -20 )">
    <path d="M 21.8265306122449 4.197265625  C 22.1762705082033 4.333984375  22.4477791116447 4.52994791666667  22.641056422569 4.78515625  C 23.0092036814726 5.3046875  23.0920368147259 5.892578125  22.8895558223289 6.548828125  L 19.093037214886 18.935546875  C 18.9181672669068 19.5188802083333  18.5661264505802 20.0087890625  18.0369147659064 20.4052734375  C 17.5077030812325 20.8017578125  16.9439775910364 21  16.3457382953181 21  L 3.60324129651861 21  C 2.89455782312925 21  2.21118447378952 20.7561848958333  1.5531212484994 20.2685546875  C 0.895058023209284 19.7809244791667  0.437174869947979 19.181640625  0.179471788715486 18.470703125  C -0.0414165666266507 17.8600260416667  -0.0506202480992397 17.28125  0.151860744297719 16.734375  C 0.151860744297719 16.6979166666667  0.165666266506603 16.5748697916667  0.19327731092437 16.365234375  C 0.220888355342137 16.1555989583333  0.239295718287315 15.9869791666667  0.248499399759904 15.859375  C 0.257703081232493 15.7864583333333  0.243897559023609 15.6884765625  0.207082833133253 15.5654296875  C 0.170268107242897 15.4423828125  0.156462585034014 15.353515625  0.165666266506603 15.298828125  C 0.184073629451781 15.1985677083333  0.220888355342137 15.1028645833333  0.276110444177671 15.01171875  C 0.331332533013205 14.9205729166667  0.407262905162065 14.8134765625  0.50390156062425 14.6904296875  C 0.600540216086435 14.5673828125  0.676470588235294 14.4602864583333  0.731692677070828 14.369140625  C 0.943377350940376 14.0227864583333  1.15046018407363 13.6057942708333  1.35294117647059 13.1181640625  C 1.55542216886755 12.6305338541667  1.69347739095638 12.2135416666667  1.76710684273709 11.8671875  C 1.79471788715486 11.7760416666667  1.79701880752301 11.6393229166667  1.77400960384154 11.45703125  C 1.75100040016006 11.2747395833333  1.74869947979192 11.1471354166667  1.76710684273709 11.07421875  C 1.79471788715486 10.9739583333333  1.87294917967187 10.8463541666667  2.00180072028812 10.69140625  C 2.13065226090436 10.5364583333333  2.20888355342137 10.431640625  2.23649459783914 10.376953125  C 2.42977190876351 10.048828125  2.62304921968788 9.62955729166667  2.81632653061224 9.119140625  C 3.00960384153661 8.60872395833333  3.12464985994398 8.19856770833333  3.16146458583433 7.888671875  C 3.17066826730692 7.806640625  3.15916366546619 7.66080729166667  3.12695078031213 7.451171875  C 3.09473789515806 7.24153645833333  3.09703881552621 7.11393229166667  3.13385354141657 7.068359375  C 3.17066826730692 6.94986979166667  3.2719087635054 6.81087239583333  3.437575030012 6.6513671875  C 3.60324129651861 6.49186197916667  3.70448179271709 6.38932291666667  3.74129651860744 6.34375  C 3.91616646658664 6.10677083333333  4.11174469787915 5.7216796875  4.32803121248499 5.1884765625  C 4.54431772709084 4.6552734375  4.67086834733894 4.21549479166667  4.70768307322929 3.869140625  C 4.71688675470188 3.79622395833333  4.703081232493 3.68001302083333  4.66626650660264 3.5205078125  C 4.62945178071229 3.36100260416666  4.6202480992397 3.240234375  4.63865546218487 3.158203125  C 4.65706282513005 3.08528645833333  4.6984793917567 3.00325520833333  4.76290516206483 2.912109375  C 4.82733093237295 2.82096354166667  4.91016406562625 2.71614583333333  5.01140456182473 2.59765625  C 5.11264505802321 2.47916666666666  5.19087635054022 2.38346354166667  5.24609843937575 2.310546875  C 5.31972789115646 2.201171875  5.39565826330532 2.06217447916667  5.47388955582233 1.8935546875  C 5.55212084833934 1.72493489583333  5.62114845938375 1.5654296875  5.68097238895558 1.4150390625  C 5.74079631852741 1.2646484375  5.81442577030812 1.1005859375  5.90186074429772 0.9228515625  C 5.98929571828732 0.745117187500001  6.07903161264506 0.599283854166666  6.17106842737095 0.485351562499999  C 6.26310524209684 0.37141927083333  6.38505402160864 0.264322916666665  6.53691476590636 0.1640625  C 6.68877551020408 0.0638020833333305  6.85444177671069 0.0113932291666664  7.03391356542617 0.00683593750000078  C 7.21338535414166 0.00227864583333048  7.43197278911565 0.0273437500000008  7.68967587034814 0.08203125  L 7.67587034813926 0.123046875  C 8.02561024409764 0.041015625  8.26030412164866 0  8.37995198079232 0  L 18.8859543817527 0  C 19.5670268107243 0  20.0916366546619 0.255208333333331  20.4597839135654 0.765625000000001  C 20.827931172469 1.27604166666667  20.9107643057223 1.86848958333333  20.7082833133253 2.54296875  L 16.9255702280912 14.9296875  C 16.594237695078 16.0143229166667  16.265206082433 16.7138671875  15.9384753901561 17.0283203125  C 15.6117446978792 17.3427734375  15.0204081632653 17.5  14.1644657863145 17.5  L 2.16746698679472 17.5  C 1.91896758703481 17.5  1.74409763905562 17.568359375  1.64285714285714 17.705078125  C 1.54161664665866 17.8509114583333  1.53701480592237 18.046875  1.62905162064826 18.29296875  C 1.8499399759904 18.9309895833333  2.51260504201681 19.25  3.61704681872749 19  L 16.359543817527 19  C 16.6264505802321 19.25  16.8841536614646 19.1793619791667  17.1326530612245 19.0380859375  C 17.3811524609844 18.8968098958333  17.5422168867547 18.7076822916667  17.6158463385354 18.470703125  L 21.7575030012005 4.9765625  C 21.8219287715086 4.77604166666667  21.8449379751901 4.51627604166667  21.8265306122449 4.197265625  Z M 8.24189675870348 3.9375  L 7.95198079231693 4.8125  C 7.91516606642657 4.93098958333333  7.92436974789916 5.03352864583333  7.97959183673469 5.1201171875  C 8.03481392557023 5.20670572916667  8.12685074029612 5.25  8.25570228091236 5.25  L 16.6494597839136 5.25  C 16.7691076430572 5.25  16.8864545818327 5.20670572916667  17.0015006002401 5.1201171875  C 17.1165466186475 5.03352864583333  17.1924769907963 4.93098958333333  17.2292917166867 4.8125  L 17.5192076830732 3.9375  C 17.5560224089636 3.81901041666667  17.546818727491 3.71647135416667  17.4915966386555 3.6298828125  C 17.4363745498199 3.54329427083333  17.344337735094 3.5  17.2154861944778 3.5  L 8.82172869147659 3.5  C 8.70208083233293 3.5  8.58473389355742 3.54329427083333  8.46968787515006 3.6298828125  C 8.3546418567427 3.71647135416667  8.27871148459384 3.81901041666667  8.24189675870348 3.9375  Z M 7.09603841536615 7.4375  L 6.80612244897959 8.3125  C 6.76930772308924 8.43098958333333  6.77851140456182 8.53352864583333  6.83373349339736 8.6201171875  C 6.88895558223289 8.70670572916667  6.98099239695878 8.75  7.10984393757503 8.75  L 15.5036014405762 8.75  C 15.6232492997199 8.75  15.7405962384954 8.70670572916667  15.8556422569028 8.6201171875  C 15.9706882753101 8.53352864583333  16.046618647459 8.43098958333333  16.0834333733493 8.3125  L 16.3733493397359 7.4375  C 16.4101640656263 7.31901041666667  16.4009603841537 7.21647135416667  16.3457382953181 7.1298828125  C 16.2905162064826 7.04329427083333  16.1984793917567 7  16.0696278511405 7  L 7.67587034813926 7  C 7.5562224889956 7  7.43887555022009 7.04329427083333  7.32382953181273 7.1298828125  C 7.20878351340536 7.21647135416667  7.1328531412565 7.31901041666667  7.09603841536615 7.4375  Z " fill-rule="nonzero" fill="#000000" stroke="none" transform="matrix(1 0 0 1 606 20 )" />
  </g>
</svg>