<?xml version="1.0" encoding="utf-8"?>
<svg version="1.1" xmlns:xlink="http://www.w3.org/1999/xlink" width="20px" height="20px" xmlns="http://www.w3.org/2000/svg">
  <g transform="matrix(1 0 0 1 -421 -19 )">
    <path d="M 8.33333333333333 15.4947916666667  C 8.55902777777778 15.4947916666667  8.75434027777778 15.4123263888889  8.91927083333333 15.2473958333333  L 16.9140625 7.25260416666667  C 17.0789930555556 7.08767361111111  17.1614583333333 6.89236111111111  17.1614583333333 6.66666666666667  C 17.1614583333333 6.44097222222222  17.0789930555556 6.24565972222222  16.9140625 6.08072916666667  L 15.5859375 4.75260416666667  C 15.4210069444444 4.58767361111111  15.2256944444444 4.50520833333333  15 4.50520833333333  C 14.7743055555556 4.50520833333333  14.5789930555556 4.58767361111111  14.4140625 4.75260416666667  L 8.33333333333333 10.8333333333333  L 5.5859375 8.0859375  C 5.42100694444445 7.92100694444444  5.22569444444445 7.83854166666667  5 7.83854166666667  C 4.77430555555556 7.83854166666667  4.57899305555556 7.92100694444444  4.4140625 8.0859375  L 3.0859375 9.4140625  C 2.92100694444444 9.57899305555556  2.83854166666667 9.77430555555556  2.83854166666667 10  C 2.83854166666667 10.2256944444444  2.92100694444444 10.4210069444444  3.0859375 10.5859375  L 7.74739583333333 15.2473958333333  C 7.91232638888889 15.4123263888889  8.10763888888889 15.4947916666667  8.33333333333333 15.4947916666667  Z M 18.8997395833333 1.10026041666667  C 19.6332465277778 1.83376736111111  20 2.71701388888889  20 3.75  L 20 16.25  C 20 17.2829861111111  19.6332465277778 18.1662326388889  18.8997395833333 18.8997395833333  C 18.1662326388889 19.6332465277778  17.2829861111111 20  16.25 20  L 3.75 20  C 2.71701388888889 20  1.83376736111111 19.6332465277778  1.10026041666667 18.8997395833333  C 0.366753472222222 18.1662326388889  0 17.2829861111111  0 16.25  L 0 3.75  C 0 2.71701388888889  0.366753472222222 1.83376736111111  1.10026041666667 1.10026041666667  C 1.83376736111111 0.366753472222221  2.71701388888889 0  3.75 0  L 16.25 0  C 17.2829861111111 0  18.1662326388889 0.366753472222221  18.8997395833333 1.10026041666667  Z " fill-rule="nonzero" fill="#000000" stroke="none" transform="matrix(1 0 0 1 421 19 )" />
  </g>
</svg>