<?xml version="1.0" encoding="utf-8"?>
<svg version="1.1" xmlns:xlink="http://www.w3.org/1999/xlink" width="20px" height="23px" xmlns="http://www.w3.org/2000/svg">
  <g transform="matrix(1 0 0 1 -649 -17 )">
    <path d="M 15.0520833333333 0.872767857142858  L 19.1145833333333 4.87723214285714  C 19.3576388888889 5.11681547619047  19.5659722222222 5.44196428571429  19.7395833333333 5.85267857142857  C 19.9131944444444 6.26339285714286  20 6.63988095238095  20 6.98214285714286  L 20 21.7678571428571  C 20 22.110119047619  19.8784722222222 22.4010416666667  19.6354166666667 22.640625  C 19.3923611111111 22.8802083333333  19.0972222222222 23  18.75 23  L 1.25 23  C 0.902777777777778 23  0.607638888888889 22.8802083333333  0.364583333333333 22.640625  C 0.121527777777778 22.4010416666667  0 22.110119047619  0 21.7678571428571  L 0 1.23214285714286  C 0 0.889880952380952  0.121527777777778 0.598958333333332  0.364583333333333 0.359375  C 0.607638888888889 0.119791666666668  0.902777777777778 0  1.25 0  L 12.9166666666667 0  C 13.2638888888889 0  13.6458333333333 0.0855654761904772  14.0625 0.256696428571429  C 14.4791666666667 0.427827380952381  14.8090277777778 0.633184523809523  15.0520833333333 0.872767857142858  Z M 13.8671875 2.02790178571429  C 13.7630208333333 1.92522321428571  13.5850694444444 1.83110119047619  13.3333333333333 1.74553571428571  L 13.3333333333333 6.57142857142857  L 18.2291666666667 6.57142857142857  C 18.1423611111111 6.32328869047619  18.046875 6.14787946428571  17.9427083333333 6.04520089285714  L 13.8671875 2.02790178571429  Z M 2 21  L 18 21  L 18 8.21428571428571  L 12.9166666666667 8.21428571428571  C 12.5694444444444 8.21428571428571  12.2743055555556 8.09449404761905  12.03125 7.85491071428571  C 11.7881944444444 7.61532738095238  11.6666666666667 7.32440476190476  11.6666666666667 6.98214285714286  L 11.6666666666667 2  L 2 2  L 2 21  Z M 3.30729166666667 13.7204241071429  L 6.25 9.85714285714286  C 6.31944444444445 9.76302083333333  6.41059027777778 9.70954241071429  6.5234375 9.69670758928571  C 6.63628472222222 9.68387276785714  6.74045138888889 9.71168154761905  6.8359375 9.78013392857143  L 7.5 10.2678571428571  C 7.59548611111111 10.3363095238095  7.64973958333333 10.4261532738095  7.66276041666667 10.5373883928571  C 7.67578125 10.6486235119048  7.64756944444445 10.7513020833333  7.578125 10.8454241071429  L 5.20833333333333 13.9642857142857  L 7.578125 17.0831473214286  C 7.64756944444445 17.1772693452381  7.67578125 17.2799479166667  7.66276041666667 17.3911830357143  C 7.64973958333333 17.5024181547619  7.59548611111111 17.5922619047619  7.5 17.6607142857143  L 6.8359375 18.1484375  C 6.74045138888889 18.2168898809524  6.63628472222222 18.2446986607143  6.5234375 18.2318638392857  C 6.41059027777778 18.2190290178571  6.31944444444445 18.1655505952381  6.25 18.0714285714286  L 3.30729166666667 14.2081473214286  C 3.18576388888889 14.0455729166667  3.18576388888889 13.8829985119048  3.30729166666667 13.7204241071429  Z M 13.75 9.85714285714286  L 16.6927083333333 13.7204241071429  C 16.8142361111111 13.8829985119048  16.8142361111111 14.0455729166667  16.6927083333333 14.2081473214286  L 13.75 18.0714285714286  C 13.6805555555556 18.1655505952381  13.5894097222222 18.2190290178571  13.4765625 18.2318638392857  C 13.3637152777778 18.2446986607143  13.2595486111111 18.2168898809524  13.1640625 18.1484375  L 12.5 17.6607142857143  C 12.4045138888889 17.5922619047619  12.3502604166667 17.5024181547619  12.3372395833333 17.3911830357143  C 12.32421875 17.2799479166667  12.3524305555556 17.1772693452381  12.421875 17.0831473214286  L 14.7916666666667 13.9642857142857  L 12.421875 10.8454241071429  C 12.3524305555556 10.7513020833333  12.32421875 10.6486235119048  12.3372395833333 10.5373883928571  C 12.3502604166667 10.4261532738095  12.4045138888889 10.3363095238095  12.5 10.2678571428571  L 13.1640625 9.78013392857143  C 13.2595486111111 9.71168154761905  13.3637152777778 9.68387276785714  13.4765625 9.69670758928571  C 13.5894097222222 9.70954241071429  13.6805555555556 9.76302083333333  13.75 9.85714285714286  Z M 9.44010416666667 19.765625  L 8.61979166666667 19.6372767857143  C 8.50694444444444 19.6201636904762  8.41796875 19.5645461309524  8.35286458333333 19.4704241071429  C 8.28776041666667 19.3763020833333  8.26388888888889 19.2736235119048  8.28125 19.1623883928571  L 10.078125 8.49665178571429  C 10.0954861111111 8.38541666666666  10.1519097222222 8.29771205357143  10.2473958333333 8.23353794642857  C 10.3428819444444 8.16936383928571  10.4470486111111 8.14583333333333  10.5598958333333 8.16294642857143  L 11.3802083333333 8.29129464285714  C 11.4930555555556 8.30840773809524  11.58203125 8.36402529761905  11.6471354166667 8.45814732142857  C 11.7122395833333 8.55226934523809  11.7361111111111 8.65494791666666  11.71875 8.76618303571429  L 9.921875 19.4319196428571  C 9.90451388888889 19.5431547619048  9.84809027777778 19.630859375  9.75260416666667 19.6950334821429  C 9.65711805555556 19.7592075892857  9.55295138888889 19.7827380952381  9.44010416666667 19.765625  Z " fill-rule="nonzero" fill="#000000" stroke="none" transform="matrix(1 0 0 1 649 17 )" />
  </g>
</svg>