<?xml version="1.0" encoding="utf-8"?>
<svg version="1.1" xmlns:xlink="http://www.w3.org/1999/xlink" width="25px" height="24px" xmlns="http://www.w3.org/2000/svg">
  <g transform="matrix(1 0 0 1 -531 -17 )">
    <path d="M 0 5.14285714285714  L 12.5 0  L 25 5.14285714285714  L 25 6.85714285714286  L 23.3333333333333 6.85714285714286  C 23.3333333333333 7.08928571428571  23.2443576388889 7.29017857142857  23.06640625 7.45982142857143  C 22.8884548611111 7.62946428571428  22.6779513888889 7.71428571428571  22.4348958333333 8  L 2.56510416666667 8  C 2.32204861111111 7.71428571428571  2.11154513888889 7.62946428571428  1.93359375 7.45982142857143  C 1.75564236111111 7.29017857142857  1.66666666666667 7.08928571428571  1.66666666666667 6.85714285714286  L 0 6.85714285714286  L 0 5.14285714285714  Z M 3.33333333333333 18.8571428571429  L 3.33333333333333 8.57142857142857  L 7 8.57142857142857  L 7 18.8571428571429  L 8.33333333333333 18.8571428571429  L 8.33333333333333 8.57142857142857  L 12 8.57142857142857  L 12 18.8571428571429  L 13 18.8571428571429  L 13 8.57142857142857  L 16.6666666666667 8.57142857142857  L 16.6666666666667 18.8571428571429  L 18 18.8571428571429  L 18 8.57142857142857  L 21.6666666666667 8.57142857142857  L 21.6666666666667 18.8571428571429  L 22.4348958333333 18.8571428571429  C 22.6779513888889 18.8571428571429  22.8884548611111 18.9419642857143  23.06640625 19.1116071428571  C 23.2443576388889 19.28125  23.3333333333333 19.4821428571429  23.3333333333333 19.7142857142857  L 23.3333333333333 20.5714285714286  L 1.66666666666667 20.5714285714286  L 1.66666666666667 19.7142857142857  C 1.66666666666667 19.4821428571429  1.75564236111111 19.28125  1.93359375 19.1116071428571  C 2.11154513888889 18.9419642857143  2.32204861111111 18.8571428571429  2.56510416666667 18.8571428571429  L 3.33333333333333 18.8571428571429  Z M 0.8984375 21  L 24.1015625 21  C 24.3446180555556 21.4285714285714  24.5551215277778 21.5133928571429  24.7330729166667 21.6830357142857  C 24.9110243055556 21.8526785714286  25 22.0535714285714  25 22.2857142857143  L 25 24  L 0 24  L 0 22.2857142857143  C 0 22.0535714285714  0.0889756944444444 21.8526785714286  0.266927083333333 21.6830357142857  C 0.444878472222222 21.5133928571429  0.655381944444444 21.4285714285714  0.8984375 21  Z " fill-rule="nonzero" fill="#000000" stroke="none" transform="matrix(1 0 0 1 531 17 )" />
  </g>
</svg>