<?xml version="1.0" encoding="utf-8"?>
<svg version="1.1" xmlns:xlink="http://www.w3.org/1999/xlink" width="22px" height="19px" xmlns="http://www.w3.org/2000/svg">
  <g transform="matrix(1 0 0 1 -201 -20 )">
    <path d="M 7.85714285714286 1.58333333333333  L 7.85714285714286 3.16666666666667  L 14.1428571428571 3.16666666666667  L 14.1428571428571 1.58333333333333  L 7.85714285714286 1.58333333333333  Z M 13.75 11.0833333333333  L 22 11.0833333333333  L 22 17.0208333333333  C 22 17.5651041666667  21.8076636904762 18.0310329861111  21.4229910714286 18.4186197916667  C 21.038318452381 18.8062065972222  20.5758928571429 19  20.0357142857143 19  L 1.96428571428571 19  C 1.42410714285714 19  0.961681547619048 18.8062065972222  0.577008928571429 18.4186197916667  C 0.19233630952381 18.0310329861111  0 17.5651041666667  0 17.0208333333333  L 0 11.0833333333333  L 8.25 11.0833333333333  L 8.25 13.0625  C 8.25 13.2769097222222  8.32775297619048 13.4624565972222  8.48325892857143 13.619140625  C 8.63876488095238 13.7758246527778  8.82291666666667 13.8541666666667  9.03571428571428 13.8541666666667  L 12.9642857142857 13.8541666666667  C 13.1770833333333 13.8541666666667  13.3612351190476 13.7758246527778  13.5167410714286 13.619140625  C 13.6722470238095 13.4624565972222  13.75 13.2769097222222  13.75 13.0625  L 13.75 11.0833333333333  Z M 9.42857142857143 11.0833333333333  L 12.5714285714286 11.0833333333333  L 12.5714285714286 12.6666666666667  L 9.42857142857143 12.6666666666667  L 9.42857142857143 11.0833333333333  Z M 21.4229910714286 3.748046875  C 21.8076636904762 4.13563368055555  22 4.6015625  22 5.14583333333333  L 22 9.89583333333333  L 0 9.89583333333333  L 0 5.14583333333333  C 0 4.6015625  0.19233630952381 4.13563368055555  0.577008928571429 3.748046875  C 0.961681547619048 3.36046006944444  1.42410714285714 3.16666666666667  1.96428571428571 3.16666666666667  L 6.28571428571429 3.16666666666667  L 6.28571428571429 1.1875  C 6.28571428571429 0.857638888888888  6.40029761904762 0.577256944444442  6.62946428571429 0.346354166666666  C 6.85863095238095 0.11545138888889  7.13690476190476 0  7.46428571428571 0  L 14.5357142857143 0  C 14.8630952380952 0  15.141369047619 0.11545138888889  15.3705357142857 0.346354166666666  C 15.5997023809524 0.577256944444442  15.7142857142857 0.857638888888888  15.7142857142857 1.1875  L 15.7142857142857 3.16666666666667  L 20.0357142857143 3.16666666666667  C 20.5758928571429 3.16666666666667  21.038318452381 3.36046006944444  21.4229910714286 3.748046875  Z " fill-rule="nonzero" fill="#000000" stroke="none" transform="matrix(1 0 0 1 201 20 )" />
  </g>
</svg>