<?xml version="1.0" encoding="utf-8"?>
<svg version="1.1" xmlns:xlink="http://www.w3.org/1999/xlink" width="194px" height="164px" xmlns="http://www.w3.org/2000/svg">
  <g transform="matrix(1 0 0 1 -556 -135 )">
    <path d="M 556 135  L 750 135  L 750 299  L 556 299  L 556 135  " fill-rule="nonzero" fill="#cccccc" stroke="none" />
    <path d="M 567 146  L 739 146  L 739 288  L 567 288  L 567 146  " fill-rule="nonzero" fill="#ffffff" stroke="none" />
    <path d="M 669.18 184.2  C 662.292 184.2  656.88 178.788  656.88 171.9  C 656.88 165.012  662.292 159.6  669.18 159.6  C 676.068 159.6  681.48 165.012  681.48 171.9  C 681.48 178.788  676.068 184.2  669.18 184.2  " fill-rule="nonzero" fill="#cccccc" stroke="none" />
    <path d="M 571 284  L 571 210.3  L 612 176.8  L 669.4 216.032989690722  L 702.2 196.9  L 735 216.032989690722  L 735 284  L 571 284  " fill-rule="nonzero" fill="#169bd5" stroke="none" />
  </g>
</svg>