<?xml version="1.0" encoding="utf-8"?>
<svg version="1.1" xmlns:xlink="http://www.w3.org/1999/xlink" width="602px" height="634px" xmlns="http://www.w3.org/2000/svg">
  <g transform="matrix(1 0 0 1 -546 -102 )">
    <path d="M 546 102  L 1148 102  L 1148 736  L 546 736  L 546 102  " fill-rule="nonzero" fill="#cccccc" stroke="none" />
    <path d="M 588 144  L 1106 144  L 1106 694  L 588 694  L 588 144  " fill-rule="nonzero" fill="#ffffff" stroke="none" />
    <path d="M 904.19 287.4  C 878.906 287.4  859.04 267.534  859.04 242.25  C 859.04 216.966  878.906 197.1  904.19 197.1  C 929.474 197.1  949.34 216.966  949.34 242.25  C 949.34 267.534  929.474 287.4  904.19 287.4  " fill-rule="nonzero" fill="#cccccc" stroke="none" />
    <path d="M 603 679  L 603 393  L 725 263  L 895.8 367  L 993.4 341  L 1091 367  L 1091 679  L 603 679  " fill-rule="nonzero" fill="#169bd5" stroke="none" />
  </g>
</svg>