<?xml version="1.0" encoding="utf-8"?>
<svg version="1.1" xmlns:xlink="http://www.w3.org/1999/xlink" width="25px" height="25px" xmlns="http://www.w3.org/2000/svg">
  <g transform="matrix(1 0 0 1 -575 -966 )">
    <path d="M 10.4166666666667 19.3684895833333  C 10.6987847222222 19.3684895833333  10.9429253472222 19.2654079861111  11.1490885416667 19.0592447916667  L 21.142578125 9.06575520833333  C 21.3487413194444 8.85959201388889  21.4518229166667 8.61545138888889  21.4518229166667 8.33333333333333  C 21.4518229166667 8.05121527777778  21.3487413194444 7.80707465277778  21.142578125 7.60091145833333  L 19.482421875 5.94075520833333  C 19.2762586805556 5.73459201388889  19.0321180555556 5.63151041666667  18.75 5.63151041666667  C 18.4678819444444 5.63151041666667  18.2237413194444 5.73459201388889  18.017578125 5.94075520833333  L 10.4166666666667 13.5416666666667  L 6.982421875 10.107421875  C 6.77625868055556 9.90125868055556  6.53211805555556 9.79817708333333  6.25 9.79817708333333  C 5.96788194444444 9.79817708333333  5.72374131944444 9.90125868055556  5.517578125 10.107421875  L 3.857421875 11.767578125  C 3.65125868055556 11.9737413194444  3.54817708333333 12.2178819444444  3.54817708333333 12.5  C 3.54817708333333 12.7821180555556  3.65125868055556 13.0262586805556  3.857421875 13.232421875  L 9.68424479166667 19.0592447916667  C 9.89040798611111 19.2654079861111  10.1345486111111 19.3684895833333  10.4166666666667 19.3684895833333  Z M 23.6246744791667 1.37532552083333  C 24.5415581597222 2.29220920138889  25 3.39626736111111  25 4.6875  L 25 20.3125  C 25 21.6037326388889  24.5415581597222 22.7077907986111  23.6246744791667 23.6246744791667  C 22.7077907986111 24.5415581597222  21.6037326388889 25  20.3125 25  L 4.6875 25  C 3.39626736111111 25  2.29220920138889 24.5415581597222  1.37532552083333 23.6246744791667  C 0.458441840277778 22.7077907986111  0 21.6037326388889  0 20.3125  L 0 4.6875  C 0 3.39626736111111  0.458441840277778 2.29220920138889  1.37532552083333 1.37532552083333  C 2.29220920138889 0.458441840277776  3.39626736111111 0  4.6875 0  L 20.3125 0  C 21.6037326388889 0  22.7077907986111 0.458441840277776  23.6246744791667 1.37532552083333  Z " fill-rule="nonzero" fill="#000000" stroke="none" transform="matrix(1 0 0 1 575 966 )" />
  </g>
</svg>