<?xml version="1.0" encoding="utf-8"?>
<svg version="1.1" xmlns:xlink="http://www.w3.org/1999/xlink" width="41px" height="35px" xmlns="http://www.w3.org/2000/svg">
  <g transform="matrix(1 0 0 1 -1245 -961 )">
    <path d="M 16.1544270833333 15.9119591346154  C 17.3573784722222 14.727063301282  18.8059027777778 14.1346153846154  20.5 14.1346153846154  C 22.1940972222222 14.1346153846154  23.6426215277778 14.727063301282  24.8455729166667 15.9119591346154  C 26.0485243055556 17.0968549679487  26.65 18.5236378205128  26.65 20.1923076923077  C 26.65 21.8609775641026  26.0485243055556 23.2877604166667  24.8455729166667 24.47265625  C 23.6426215277778 25.6575520833333  22.1940972222222 26.25  20.5 26.25  C 18.8059027777778 26.25  17.3573784722222 25.6575520833333  16.1544270833333 24.47265625  C 14.9514756944444 23.2877604166667  14.35 21.8609775641026  14.35 20.1923076923077  C 14.35 18.5236378205128  14.9514756944444 17.0968549679487  16.1544270833333 15.9119591346154  Z M 30.75 5.38461538461539  L 35.5333333333333 5.38461538461539  C 37.0423611111111 5.38461538461539  38.3307291666667 5.91045673076923  39.3984375 6.96213942307692  C 40.4661458333333 8.01382211538462  41 9.28285256410256  41 10.7692307692308  L 41 29.6153846153846  C 41 31.1017628205128  40.4661458333333 32.3707932692308  39.3984375 33.4224759615385  C 38.3307291666667 34.4741586538462  37.0423611111111 35  35.5333333333333 35  L 5.46666666666667 35  C 3.95763888888889 35  2.66927083333333 34.4741586538462  1.6015625 33.4224759615385  C 0.533854166666667 32.3707932692308  0 31.1017628205128  0 29.6153846153846  L 0 10.7692307692308  C 0 9.28285256410256  0.533854166666667 8.01382211538462  1.6015625 6.96213942307692  C 2.66927083333333 5.91045673076923  3.95763888888889 5.38461538461539  5.46666666666667 5.38461538461539  L 10.25 5.38461538461539  L 11.3390625 2.52403846153846  C 11.6095486111111 1.8369391025641  12.1042534722222 1.24449118589743  12.8231770833333 0.74669471153846  C 13.5421006944444 0.248898237179491  14.2788194444444 0  15.0333333333333 0  L 25.9666666666667 0  C 26.7211805555556 0  27.4578993055556 0.248898237179491  28.1768229166667 0.74669471153846  C 28.8957465277778 1.24449118589743  29.3904513888889 1.8369391025641  29.6609375 2.52403846153846  L 30.75 5.38461538461539  Z M 13.74140625 26.8494591346154  C 15.6134548611111 28.6934094551282  17.8663194444444 29.6153846153846  20.5 29.6153846153846  C 23.1336805555556 29.6153846153846  25.3865451388889 28.6934094551282  27.25859375 26.8494591346154  C 29.1306423611111 25.0055088141026  30.0666666666667 22.7864583333333  30.0666666666667 20.1923076923077  C 30.0666666666667 17.5981570512821  29.1306423611111 15.3791065705128  27.25859375 13.53515625  C 25.3865451388889 11.6912059294872  23.1336805555556 10.7692307692308  20.5 10.7692307692308  C 17.8663194444444 10.7692307692308  15.6134548611111 11.6912059294872  13.74140625 13.53515625  C 11.8693576388889 15.3791065705128  10.9333333333333 17.5981570512821  10.9333333333333 20.1923076923077  C 10.9333333333333 22.7864583333333  11.8693576388889 25.0055088141026  13.74140625 26.8494591346154  Z " fill-rule="nonzero" fill="#000000" stroke="none" transform="matrix(1 0 0 1 1245 961 )" />
  </g>
</svg>