<?xml version="1.0" encoding="utf-8"?>
<svg version="1.1" xmlns:xlink="http://www.w3.org/1999/xlink" width="201px" height="170px" xmlns="http://www.w3.org/2000/svg">
  <g transform="matrix(1 0 0 1 -686 -133 )">
    <path d="M 686 133  L 887 133  L 887 303  L 686 303  L 686 133  " fill-rule="nonzero" fill="#cccccc" stroke="none" />
    <path d="M 698 145  L 875 145  L 875 291  L 698 291  L 698 145  " fill-rule="nonzero" fill="#ffffff" stroke="none" />
    <path d="M 803.27 184  C 796.13 184  790.52 178.39  790.52 171.25  C 790.52 164.11  796.13 158.5  803.27 158.5  C 810.41 158.5  816.02 164.11  816.02 171.25  C 816.02 178.39  810.41 184  803.27 184  " fill-rule="nonzero" fill="#cccccc" stroke="none" />
    <path d="M 703 287  L 703 211.65  L 745 177.4  L 803.8 217.477611940299  L 837.4 197.95  L 871 217.477611940299  L 871 287  L 703 287  " fill-rule="nonzero" fill="#169bd5" stroke="none" />
  </g>
</svg>